# xmcd CD database file
#
# Track frame offsets:
#	150
#	73080
#	111628
#	134351
#	152201
#	164076
#	179987
#	205645
#	252240
#
# Disc length: 4385 seconds
#
# Revision: 2
# Processed by: cddbd v1.4b41PL1 Copyright (c) Steve Scherf et al.
# Submitted via: Feurio! 1.50.2ß - http://www.feurio.com
#
DISCID=90111f09
DTITLE=Various Artist - Feten Music 2
DYEAR=1900
DGENRE=
TTITLE0=Santa Esmeralda - Don´t Let Me Be Misunderstood
TTITLE1=Supermax - Lovemachine
TTITLE2=Golden Earring - Radar Love
TTITLE3=Ram Jam - Black Betty
TTITLE4=Uriah Heep - Easy Living
TTITLE5=Steppenwolf - Born To Be Wild
TTITLE6=Deep Purple - Smoke On The Water
TTITLE7=Deep Purple - Cild In Time
TTITLE8=Iron Butterfly - In A Gadda Da Vida
EXTD=
EXTT0=
EXTT1=
EXTT2=
EXTT3=
EXTT4=
EXTT5=
EXTT6=
EXTT7=
EXTT8=
PLAYORDER=
